<mxfile host="app.diagrams.net" agent="Mozilla/5.0 (Windows NT 10.0; Win64; x64) AppleWebKit/537.36 (KHTML, like Gecko) Chrome/128.0.0.0 Safari/537.36" version="24.7.7">
  <diagram name="Page-1" id="R6ePaQp6RDiV2uvNN73i">
    <mxGraphModel dx="1210" dy="599" grid="1" gridSize="10" guides="1" tooltips="1" connect="1" arrows="1" fold="1" page="1" pageScale="1" pageWidth="827" pageHeight="1169" math="0" shadow="0">
      <root>
        <mxCell id="0" />
        <mxCell id="1" parent="0" />
        <mxCell id="a66p1hXx1kNRm8rjJGL9-6" style="edgeStyle=orthogonalEdgeStyle;rounded=0;orthogonalLoop=1;jettySize=auto;html=1;exitX=1;exitY=0.3333333333333333;exitDx=0;exitDy=0;exitPerimeter=0;" edge="1" parent="1" source="a66p1hXx1kNRm8rjJGL9-1">
          <mxGeometry relative="1" as="geometry">
            <mxPoint x="330" y="280" as="targetPoint" />
          </mxGeometry>
        </mxCell>
        <mxCell id="a66p1hXx1kNRm8rjJGL9-1" value="Actor" style="shape=umlActor;verticalLabelPosition=bottom;verticalAlign=top;html=1;outlineConnect=0;" vertex="1" parent="1">
          <mxGeometry x="110" y="260" width="30" height="60" as="geometry" />
        </mxCell>
        <mxCell id="a66p1hXx1kNRm8rjJGL9-9" style="edgeStyle=orthogonalEdgeStyle;rounded=0;orthogonalLoop=1;jettySize=auto;html=1;exitX=0;exitY=0;exitDx=0;exitDy=52.5;exitPerimeter=0;" edge="1" parent="1" source="a66p1hXx1kNRm8rjJGL9-2">
          <mxGeometry relative="1" as="geometry">
            <mxPoint x="470" y="313" as="targetPoint" />
          </mxGeometry>
        </mxCell>
        <mxCell id="a66p1hXx1kNRm8rjJGL9-2" value="Database" style="shape=cylinder3;whiteSpace=wrap;html=1;boundedLbl=1;backgroundOutline=1;size=15;" vertex="1" parent="1">
          <mxGeometry x="620" y="260" width="60" height="80" as="geometry" />
        </mxCell>
        <mxCell id="a66p1hXx1kNRm8rjJGL9-7" style="edgeStyle=orthogonalEdgeStyle;rounded=0;orthogonalLoop=1;jettySize=auto;html=1;exitX=0;exitY=0.75;exitDx=0;exitDy=0;" edge="1" parent="1" source="a66p1hXx1kNRm8rjJGL9-3">
          <mxGeometry relative="1" as="geometry">
            <mxPoint x="150" y="315" as="targetPoint" />
          </mxGeometry>
        </mxCell>
        <mxCell id="a66p1hXx1kNRm8rjJGL9-8" style="edgeStyle=orthogonalEdgeStyle;rounded=0;orthogonalLoop=1;jettySize=auto;html=1;exitX=1;exitY=0.25;exitDx=0;exitDy=0;" edge="1" parent="1" source="a66p1hXx1kNRm8rjJGL9-3">
          <mxGeometry relative="1" as="geometry">
            <mxPoint x="610" y="285" as="targetPoint" />
          </mxGeometry>
        </mxCell>
        <mxCell id="a66p1hXx1kNRm8rjJGL9-3" value="Digital Local OTT Platform" style="rounded=1;whiteSpace=wrap;html=1;" vertex="1" parent="1">
          <mxGeometry x="340" y="270" width="120" height="60" as="geometry" />
        </mxCell>
        <mxCell id="a66p1hXx1kNRm8rjJGL9-10" style="edgeStyle=orthogonalEdgeStyle;rounded=0;orthogonalLoop=1;jettySize=auto;html=1;exitX=0.5;exitY=1;exitDx=0;exitDy=0;entryX=0.5;entryY=0;entryDx=0;entryDy=0;" edge="1" parent="1" source="a66p1hXx1kNRm8rjJGL9-4" target="a66p1hXx1kNRm8rjJGL9-3">
          <mxGeometry relative="1" as="geometry" />
        </mxCell>
        <mxCell id="a66p1hXx1kNRm8rjJGL9-4" value="Admin" style="rounded=0;whiteSpace=wrap;html=1;" vertex="1" parent="1">
          <mxGeometry x="340" y="120" width="120" height="60" as="geometry" />
        </mxCell>
        <mxCell id="a66p1hXx1kNRm8rjJGL9-11" style="edgeStyle=orthogonalEdgeStyle;rounded=0;orthogonalLoop=1;jettySize=auto;html=1;exitX=0.5;exitY=0;exitDx=0;exitDy=0;entryX=0.5;entryY=1;entryDx=0;entryDy=0;" edge="1" parent="1" source="a66p1hXx1kNRm8rjJGL9-5" target="a66p1hXx1kNRm8rjJGL9-3">
          <mxGeometry relative="1" as="geometry" />
        </mxCell>
        <mxCell id="a66p1hXx1kNRm8rjJGL9-5" value="Customer" style="rounded=0;whiteSpace=wrap;html=1;" vertex="1" parent="1">
          <mxGeometry x="340" y="410" width="120" height="60" as="geometry" />
        </mxCell>
      </root>
    </mxGraphModel>
  </diagram>
</mxfile>
